# xmcd CD database file
#
# Track frame offsets:
#	150
#	98093
#	159123
#
# Disc length: 3469 seconds
#
# Revision: 0
# Processed by: cddbd v1.5.2PL0 Copyright (c) Steve Scherf et al.
# Submitted via: CDex 1.51
#
DISCID=130d8b03
DTITLE=peter brötzmann and peeter uuskyla - born broke [CD1)
DYEAR=1900
DGENRE=Jazz
TTITLE0=born broke
TTITLE1=beautiful but stupid
TTITLE2=ain't got the money
EXTD=
EXTT0=
EXTT1=
EXTT2=
PLAYORDER=
